<svg width="371" height="90" viewBox="0 0 371 90" fill="none" xmlns="http://www.w3.org/2000/svg">
<g clip-path="url(#clip0_7_240)">
<path d="M121.985 72V20.7235H131.671V41.8038H154.603V20.7235H164.288V72H154.603V50.8484H131.671V72H121.985ZM188.387 73.0683C184.517 73.0683 181.122 72.2018 178.202 70.4688C175.283 68.7359 173.004 66.3501 171.366 63.3115C169.751 60.2491 168.944 56.7357 168.944 52.7713C168.944 48.7594 169.775 45.2341 171.437 42.1955C173.099 39.1332 175.389 36.7474 178.309 35.0382C181.229 33.329 184.588 32.4743 188.387 32.4743C192.256 32.4743 195.651 33.3408 198.571 35.0738C201.514 36.8067 203.805 39.2044 205.443 42.2667C207.081 45.3053 207.9 48.8069 207.9 52.7713C207.9 56.7595 207.069 60.2847 205.407 63.3471C203.769 66.3857 201.479 68.7715 198.535 70.5044C195.615 72.2137 192.232 73.0683 188.387 73.0683ZM188.387 64.0237C191.496 64.0237 193.811 62.9791 195.33 60.8901C196.873 58.7773 197.645 56.071 197.645 52.7713C197.645 49.3529 196.861 46.6229 195.295 44.5813C193.752 42.5397 191.449 41.519 188.387 41.519C186.274 41.519 184.541 41.9937 183.188 42.9433C181.835 43.8929 180.826 45.2104 180.161 46.8959C179.52 48.5813 179.199 50.5398 179.199 52.7713C179.199 56.2135 179.971 58.9553 181.514 60.9969C183.081 63.0147 185.372 64.0237 188.387 64.0237ZM212.526 72V33.5426H221.072V42.9433L220.146 41.7326C220.645 40.4032 221.309 39.1925 222.14 38.1005C222.971 37.0085 223.992 36.1064 225.203 35.3943C226.128 34.8245 227.137 34.3853 228.229 34.0767C229.321 33.7444 230.449 33.5426 231.612 33.4714C232.775 33.3764 233.939 33.4002 235.102 33.5426V42.5872C234.034 42.2549 232.787 42.148 231.363 42.2667C229.962 42.3617 228.692 42.6822 227.553 43.2282C226.413 43.7504 225.452 44.4507 224.668 45.3291C223.885 46.1837 223.292 47.2045 222.888 48.3914C222.484 49.5547 222.283 50.8722 222.283 52.344V72H212.526ZM239.383 28.2013V19.6552H249.068V28.2013H239.383ZM239.383 72V33.5426H249.068V72H239.383ZM252.978 72V70.7893L271.851 41.9463H255.114V33.5426H286.806V34.7533L268.005 63.5963H286.094V72H252.978ZM305.901 73.0683C302.031 73.0683 298.637 72.2018 295.717 70.4688C292.797 68.7359 290.518 66.3501 288.88 63.3115C287.266 60.2491 286.458 56.7357 286.458 52.7713C286.458 48.7594 287.289 45.2341 288.951 42.1955C290.613 39.1332 292.904 36.7474 295.824 35.0382C298.743 33.329 302.103 32.4743 305.901 32.4743C309.77 32.4743 313.165 33.3408 316.085 35.0738C319.029 36.8067 321.319 39.2044 322.957 42.2667C324.595 45.3053 325.414 48.8069 325.414 52.7713C325.414 56.7595 324.583 60.2847 322.922 63.3471C321.284 66.3857 318.993 68.7715 316.049 70.5044C313.129 72.2137 309.747 73.0683 305.901 73.0683ZM305.901 64.0237C309.011 64.0237 311.325 62.9791 312.844 60.8901C314.388 58.7773 315.159 56.071 315.159 52.7713C315.159 49.3529 314.376 46.6229 312.809 44.5813C311.266 42.5397 308.963 41.519 305.901 41.519C303.788 41.519 302.055 41.9937 300.702 42.9433C299.349 43.8929 298.34 45.2104 297.675 46.8959C297.034 48.5813 296.714 50.5398 296.714 52.7713C296.714 56.2135 297.485 58.9553 299.028 60.9969C300.595 63.0147 302.886 64.0237 305.901 64.0237ZM356.248 72V53.8396C356.248 52.9612 356.201 51.8455 356.106 50.4923C356.011 49.1155 355.714 47.7386 355.215 46.3617C354.717 44.9849 353.898 43.8335 352.758 42.9077C351.643 41.9819 350.052 41.519 347.987 41.519C347.156 41.519 346.266 41.6495 345.316 41.9107C344.367 42.1718 343.476 42.6822 342.646 43.4418C341.815 44.1777 341.126 45.2697 340.58 46.7178C340.058 48.1659 339.797 50.0888 339.797 52.4864L334.242 49.8514C334.242 46.8128 334.859 43.9641 336.094 41.3053C337.328 38.6465 339.18 36.4981 341.649 34.8601C344.141 33.2221 347.275 32.4031 351.049 32.4031C354.064 32.4031 356.521 32.9135 358.42 33.9343C360.319 34.9551 361.791 36.2489 362.836 37.8157C363.904 39.3824 364.664 41.0204 365.115 42.7297C365.566 44.4151 365.839 45.9582 365.934 47.3588C366.029 48.7594 366.076 49.7802 366.076 50.4211V72H356.248ZM329.969 72V33.5426H338.586V46.2905H339.797V72H329.969Z" fill="white"/>
<path d="M7.88735 11.8463C9.17197 9.72217 11.5438 8.39004 14.202 8.29967C17.2731 8.19526 21.6674 11.5492 30.456 18.257L37.8197 23.8773C41.3382 26.5628 43.0974 27.9056 44.9712 28.3155C46.6194 28.676 48.3241 28.5452 49.8411 27.9418C51.5658 27.2558 52.9271 25.6737 55.6496 22.5094L57.4161 20.4563C62.6517 14.3712 65.2695 11.3286 67.9866 10.8349C70.3491 10.4056 72.8415 11.0185 74.7515 12.4985C82.4571 18.469 95.6259 70.379 90.6782 78.4292C89.3833 80.5361 87.0147 81.8516 84.3665 81.9345C81.3078 82.0303 76.9707 78.7201 68.2967 72.0997L61.7134 67.075C58.1949 64.3895 56.4356 63.0468 54.5619 62.6369C52.9137 62.2763 51.2089 62.4071 49.6919 63.0105C47.9673 63.6965 46.606 65.2786 43.8834 68.4429L41.9179 70.7275C36.7372 76.7487 34.1469 79.7593 31.4441 80.2581C29.0934 80.6918 26.6104 80.0928 24.6987 78.6306C16.7451 72.5473 3.04736 19.8491 7.88735 11.8463Z" fill="white" stroke="white" stroke-width="9.44181"/>
</g>
<defs>
<clipPath id="clip0_7_240">
<rect width="371" height="90" fill="white"/>
</clipPath>
</defs>
</svg>
